<svg width="61" height="72" viewBox="0 0 631 722" fill="white" xmlns="http://www.w3.org/2000/svg">
<path d="M293.54 380.52H360V371.52H293.54C288.36 371.52 283.66 374.78 281.84 379.62L184.5 638.67V41.46C184.5 18.21 154.27 0 115.67 0C77.08 0 46.85 18.21 46.85 41.46C46.85 64.71 77.08 82.92 115.67 82.92C139.59 82.92 160.29 75.92 172.58 65.06L69.65 353.73C69.15 355.12 67.83 356.06 66.35 356.06H0V365.06H66.35C71.62 365.06 76.35 361.72 78.12 356.76L175.49 83.69V679.58C175.49 679.6 175.49 679.63 175.49 679.65C175.49 702.9 205.72 721.11 244.32 721.11C282.92 721.11 313.15 702.9 313.15 679.65C313.15 656.4 282.92 638.19 244.32 638.19C220.56 638.19 199.99 645.1 187.67 655.82L290.26 382.79C290.77 381.43 292.09 380.52 293.54 380.52ZM115.66 73.92C83.23 73.92 55.84 59.06 55.84 41.46C55.84 23.86 83.23 9 115.66 9C148.09 9 175.49 23.86 175.49 41.46C175.49 59.06 148.09 73.92 115.66 73.92ZM244.32 647.18C276.75 647.18 304.15 662.05 304.15 679.64C304.15 697.23 276.75 712.1 244.32 712.1C211.89 712.1 184.49 697.23 184.49 679.64V679.58C184.56 662.01 211.93 647.18 244.32 647.18Z" fill="white"/>
<path d="M220.8 290V150H326.4V167H240.6V207H284.2C300.867 207 313.533 210.467 322.2 217.4C330.867 224.333 335.2 234.4 335.2 247.6C335.2 261.2 330.467 271.667 321 279C311.667 286.333 298.267 290 280.8 290H220.8ZM240.6 274.2H280C291.6 274.2 300.333 272 306.2 267.6C312.2 263.2 315.2 256.667 315.2 248C315.2 231.2 303.467 222.8 280 222.8H240.6V274.2ZM367.089 290V150H386.889V258L469.689 150H488.089V290H468.489V182.2L385.489 290H367.089ZM560.338 290V162.2L565.338 167.4H512.538V150H627.938V167.4H575.138L579.938 162.2V290H560.338Z" fill="white"/>
<path d="M319.76 472.64C315.493 472.64 311.547 471.947 307.92 470.56C304.347 469.12 301.227 467.12 298.56 464.56C295.947 461.947 293.893 458.907 292.4 455.44C290.907 451.973 290.16 448.16 290.16 444C290.16 439.84 290.907 436.027 292.4 432.56C293.893 429.093 295.973 426.08 298.64 423.52C301.307 420.907 304.427 418.907 308 417.52C311.627 416.08 315.573 415.36 319.84 415.36C324.16 415.36 328.133 416.107 331.76 417.6C335.44 419.04 338.56 421.2 341.12 424.08L335.92 429.12C333.787 426.88 331.387 425.227 328.72 424.16C326.053 423.04 323.2 422.48 320.16 422.48C317.013 422.48 314.08 423.013 311.36 424.08C308.693 425.147 306.373 426.64 304.4 428.56C302.427 430.48 300.88 432.773 299.76 435.44C298.693 438.053 298.16 440.907 298.16 444C298.16 447.093 298.693 449.973 299.76 452.64C300.88 455.253 302.427 457.52 304.4 459.44C306.373 461.36 308.693 462.853 311.36 463.92C314.08 464.987 317.013 465.52 320.16 465.52C323.2 465.52 326.053 464.987 328.72 463.92C331.387 462.8 333.787 461.093 335.92 458.8L341.12 463.84C338.56 466.72 335.44 468.907 331.76 470.4C328.133 471.893 324.133 472.64 319.76 472.64ZM362.957 472V420.88L364.957 422.96H343.837V416H389.997V422.96H368.877L370.797 420.88V472H362.957ZM397.138 464.96C399.911 465.973 402.471 466.24 404.818 465.76C407.165 465.227 409.271 463.44 411.138 460.4L413.858 456.08L414.658 455.2L435.218 416H443.138L418.258 462.08C416.391 465.6 414.205 468.267 411.698 470.08C409.245 471.84 406.578 472.8 403.698 472.96C400.871 473.173 397.991 472.64 395.058 471.36L397.138 464.96ZM414.418 462.32L389.858 416H398.418L418.818 455.92L414.418 462.32ZM488.014 468.24V422.96H463.454L463.054 434.72C462.894 438.667 462.627 442.453 462.254 446.08C461.934 449.707 461.454 452.987 460.814 455.92C460.174 458.8 459.267 461.173 458.094 463.04C456.974 464.907 455.534 466.053 453.774 466.48L445.134 465.04C447.214 465.2 448.92 464.507 450.254 462.96C451.64 461.36 452.707 459.147 453.454 456.32C454.254 453.44 454.84 450.107 455.214 446.32C455.587 442.48 455.854 438.373 456.014 434L456.574 416H495.934V468.24H488.014ZM443.134 484.24L443.214 465.04H504.174V484.24H496.734V472H450.654L450.574 484.24H443.134ZM515.111 472V416H523.031V459.2L556.151 416H563.511V472H555.671V428.88L522.471 472H515.111ZM614.17 472V453.76L616.25 455.68H598.73C594.197 455.68 590.277 454.907 586.97 453.36C583.717 451.813 581.21 449.6 579.45 446.72C577.743 443.787 576.89 440.267 576.89 436.16C576.89 431.893 577.823 428.267 579.69 425.28C581.557 422.24 584.197 419.947 587.61 418.4C591.023 416.8 594.997 416 599.53 416H622.01V472H614.17ZM576.89 472L590.73 452.16H598.89L585.37 472H576.89ZM614.17 451.2V420.64L616.25 422.96H599.85C595.05 422.96 591.37 424.08 588.81 426.32C586.25 428.507 584.97 431.76 584.97 436.08C584.97 440.187 586.17 443.36 588.57 445.6C591.023 447.84 594.623 448.96 599.37 448.96H616.25L614.17 451.2Z" fill="white"/>
<path d="M255.72 587V531H262.28L287.4 573.32H283.88L308.68 531H315.24L315.32 587H307.64L307.56 543.08H309.4L287.32 580.2H283.64L261.4 543.08H263.4V587H255.72ZM332.591 579.96C335.365 580.973 337.925 581.24 340.271 580.76C342.618 580.227 344.725 578.44 346.591 575.4L349.311 571.08L350.111 570.2L370.671 531H378.591L353.711 577.08C351.845 580.6 349.658 583.267 347.151 585.08C344.698 586.84 342.031 587.8 339.151 587.96C336.325 588.173 333.445 587.64 330.511 586.36L332.591 579.96ZM349.871 577.32L325.311 531H333.871L354.271 570.92L349.871 577.32ZM381.435 580.92L384.235 575C386.688 576.92 389.382 578.36 392.315 579.32C395.302 580.28 398.262 580.787 401.195 580.84C404.128 580.84 406.822 580.44 409.275 579.64C411.782 578.84 413.782 577.64 415.275 576.04C416.768 574.44 417.515 572.467 417.515 570.12C417.515 567.24 416.342 565.053 413.995 563.56C411.702 562.067 408.502 561.32 404.395 561.32H391.915V554.84H403.835C407.408 554.84 410.182 554.12 412.155 552.68C414.182 551.187 415.195 549.133 415.195 546.52C415.195 544.547 414.582 542.893 413.355 541.56C412.182 540.173 410.555 539.133 408.475 538.44C406.448 537.747 404.128 537.4 401.515 537.4C398.955 537.347 396.315 537.693 393.595 538.44C390.875 539.133 388.262 540.253 385.755 541.8L383.195 535.24C386.608 533.32 390.155 531.987 393.835 531.24C397.568 530.44 401.168 530.2 404.635 530.52C408.102 530.787 411.222 531.587 413.995 532.92C416.822 534.2 419.062 535.907 420.715 538.04C422.422 540.12 423.275 542.627 423.275 545.56C423.275 548.227 422.582 550.6 421.195 552.68C419.808 554.707 417.888 556.28 415.435 557.4C412.982 558.467 410.128 559 406.875 559L407.195 556.84C410.928 556.84 414.155 557.453 416.875 558.68C419.648 559.853 421.782 561.533 423.275 563.72C424.822 565.907 425.595 568.44 425.595 571.32C425.595 574.04 424.902 576.467 423.515 578.6C422.128 580.68 420.235 582.44 417.835 583.88C415.488 585.267 412.795 586.28 409.755 586.92C406.768 587.56 403.622 587.773 400.315 587.56C397.008 587.347 393.728 586.707 390.475 585.64C387.275 584.573 384.262 583 381.435 580.92ZM463.483 550.52C470.096 550.52 475.19 552.013 478.763 555C482.336 557.933 484.123 562.333 484.123 568.2C484.123 574.387 482.176 579.08 478.283 582.28C474.443 585.427 469.03 587 462.043 587H438.923V531H446.843V550.52H463.483ZM461.723 580.68C466.363 580.68 469.91 579.64 472.363 577.56C474.87 575.48 476.123 572.413 476.123 568.36C476.123 564.413 474.896 561.507 472.443 559.64C469.99 557.773 466.416 556.84 461.723 556.84H446.843V580.68H461.723ZM493.003 587V531H500.923V587H493.003ZM556.056 587L535.736 559.4L542.216 555.4L565.176 587H556.056ZM518.376 587V531H526.216V587H518.376ZM523.816 562.36V555.32H541.976V562.36H523.816ZM542.936 559.88L535.576 558.76L555.656 531H564.216L542.936 559.88ZM573.376 587V531H581.296V574.2L614.416 531H621.776V587H613.936V543.88L580.736 587H573.376Z" fill="white"/>
</svg>
